<svg width="134" height="42" viewBox="0 0 134 42" fill="none" xmlns="http://www.w3.org/2000/svg">
<path fill-rule="evenodd" clip-rule="evenodd" d="M13.575 1.87366C13.9459 2.01962 14.2808 2.26002 14.5847 2.57769C15.0913 3.10313 15.5188 3.85524 15.8451 4.74644C16.1731 5.64278 16.386 6.63529 16.4667 7.63123C17.5478 7.0196 18.7477 6.64717 19.9851 6.53913L20.0727 6.53226C21.5666 6.41206 23.0433 6.68165 24.3312 7.34619C24.5046 7.4372 24.6746 7.53507 24.8412 7.6381C24.927 6.66105 25.1365 5.69086 25.4593 4.81512C25.7856 3.92221 26.2132 3.17182 26.718 2.64466C27.0001 2.33946 27.3452 2.09924 27.7294 1.94063C28.1707 1.76891 28.6395 1.73801 29.0963 1.86851C29.7848 2.06426 30.3755 2.50042 30.8409 3.13404C31.2667 3.71272 31.5861 4.45452 31.8042 5.344C32.1991 6.94781 32.2678 9.05818 32.0017 11.603L32.0927 11.6717L32.1373 11.7043C33.4372 12.6934 34.3421 14.1031 34.8212 15.7396C35.5682 18.293 35.1921 21.1572 33.9042 22.7592L33.8733 22.7953L33.8768 22.8005C34.5928 24.1089 35.0273 25.4912 35.12 26.9216L35.1234 26.9731C35.2333 28.8019 34.78 30.6426 33.7257 32.4508L33.7136 32.468L33.7308 32.5092C34.5413 34.4959 34.7954 36.4964 34.4829 38.4951L34.4726 38.5621C34.4242 38.8541 34.262 39.1149 34.0215 39.2874C33.7811 39.46 33.482 39.5301 33.1899 39.4825C33.0453 39.4599 32.9065 39.409 32.7816 39.3327C32.6567 39.2564 32.548 39.1562 32.4619 39.0378C32.3757 38.9195 32.3138 38.7853 32.2796 38.6429C32.2454 38.5006 32.2397 38.3529 32.2627 38.2084C32.5494 36.4346 32.2798 34.6556 31.4384 32.8457C31.3599 32.6776 31.3251 32.4924 31.3371 32.3072C31.3491 32.122 31.4076 31.9429 31.5071 31.7863L31.514 31.7759C32.5511 30.1893 32.9804 28.6336 32.8877 27.1053C32.8087 25.7677 32.3296 24.4541 31.514 23.2023C31.3553 22.9589 31.2988 22.6629 31.3567 22.3782C31.4145 22.0935 31.582 21.843 31.8231 21.6809L31.8385 21.6706C32.2558 21.3976 32.6404 20.7004 32.8345 19.7474C33.0486 18.6205 32.9927 17.4589 32.6713 16.3577C32.3193 15.1557 31.6754 14.1529 30.7739 13.4678C29.7522 12.6882 28.3991 12.3122 26.6871 12.4203C26.4632 12.4349 26.2402 12.382 26.0467 12.2684C25.8532 12.1548 25.6983 11.9858 25.6019 11.7833C25.0627 10.6414 24.2762 9.82402 23.2958 9.31747C22.3544 8.84765 21.3005 8.6502 20.253 8.74737C18.1151 8.91737 16.2297 10.1228 15.6682 11.6425C15.5888 11.8564 15.4459 12.0409 15.2587 12.1713C15.0715 12.3017 14.8489 12.3718 14.6208 12.3723C12.7886 12.3757 11.3702 12.805 10.3331 13.5794C9.43671 14.2491 8.8254 15.1849 8.50258 16.3062C8.21046 17.3617 8.17046 18.471 8.38582 19.5448C8.57814 20.5029 8.95419 21.2962 9.38519 21.7238L9.39893 21.7358C9.76296 22.0913 9.84023 22.6459 9.5861 23.0838C8.96793 24.1518 8.50602 25.7436 8.43046 27.2736C8.3446 29.0217 8.74985 30.5396 9.66509 31.6283L9.69256 31.6609C9.83068 31.8219 9.91951 32.0192 9.94844 32.2293C9.97737 32.4394 9.94517 32.6534 9.85569 32.8457C8.86662 34.9681 8.56268 36.7127 8.89066 38.0864C8.94961 38.3721 8.89476 38.6695 8.73778 38.9153C8.5808 39.1611 8.33408 39.336 8.05014 39.4027C7.76619 39.4693 7.46743 39.4226 7.21744 39.2723C6.96745 39.1221 6.78596 38.8802 6.7116 38.5981C6.29434 36.8501 6.57767 34.8479 7.52381 32.5916L7.54785 32.5315L7.53411 32.5109C7.0691 31.824 6.72204 31.0643 6.50726 30.2631L6.49868 30.2305C6.23804 29.2309 6.13549 28.1967 6.19474 27.1654C6.2703 25.6028 6.67211 24.0025 7.26281 22.718L7.28341 22.6734L7.27998 22.67C6.77686 21.9522 6.40424 21.0335 6.19818 20.017L6.18959 19.9758C5.90569 18.5578 5.9604 17.0929 6.34929 15.7001C6.79918 14.1289 7.68351 12.7792 8.98682 11.8039C9.08984 11.7266 9.19802 11.6493 9.3062 11.5772C9.03318 9.01353 9.10186 6.88943 9.49852 5.27532C9.7166 4.38584 10.0377 3.64403 10.4636 3.06536C10.9272 2.43345 11.5179 1.99729 12.2065 1.79982C12.6632 1.66932 13.1337 1.69851 13.575 1.87194V1.87366ZM20.6428 17.4825C22.25 17.4825 23.7336 18.0199 24.8429 18.9506C25.9247 19.8556 26.5686 21.0713 26.5686 22.2819C26.5686 23.8067 25.8715 24.995 24.6231 25.7539C23.5585 26.3979 22.1315 26.7104 20.4968 26.7104C18.7642 26.7104 17.284 26.2656 16.216 25.45C15.1565 24.6429 14.5624 23.5096 14.5624 22.2819C14.5624 21.0679 15.2458 19.8487 16.3757 18.9403C17.5227 18.0182 19.0372 17.4825 20.6428 17.4825ZM20.6428 19.021C19.4515 19.0106 18.2918 19.404 17.3527 20.1372C16.5611 20.7725 16.113 21.571 16.113 22.2836C16.113 23.0185 16.4736 23.7071 17.1604 24.2308C17.9417 24.8267 19.0905 25.1718 20.4968 25.1718C21.8688 25.1718 23.0262 24.9194 23.8143 24.4403C24.6094 23.9595 25.0163 23.2624 25.0163 22.2819C25.0163 21.5555 24.5939 20.7536 23.8435 20.1251C23.0124 19.4297 21.886 19.021 20.6428 19.021ZM21.7795 21.0988L21.7864 21.1056C21.9924 21.3649 21.9495 21.741 21.6902 21.947L21.1888 22.342V23.1078C21.1879 23.2783 21.1194 23.4415 20.9984 23.5615C20.8774 23.6816 20.7137 23.7488 20.5432 23.7483C20.3727 23.7488 20.209 23.6816 20.088 23.5615C19.9669 23.4415 19.8984 23.2783 19.8975 23.1078V22.3179L19.4322 21.9436C19.3708 21.8944 19.3198 21.8336 19.282 21.7645C19.2443 21.6955 19.2206 21.6197 19.2123 21.5415C19.204 21.4633 19.2112 21.3842 19.2337 21.3088C19.2561 21.2334 19.2932 21.1632 19.3429 21.1022C19.4442 20.9788 19.5902 20.9004 19.749 20.884C19.9079 20.8676 20.0667 20.9146 20.1912 21.0146L20.5603 21.31L20.9381 21.0112C21.0621 20.9132 21.2195 20.8676 21.3766 20.8839C21.5338 20.9003 21.6784 20.9774 21.7795 21.0988ZM13.1251 17.8036C13.9459 17.8036 14.6139 18.4733 14.6139 19.2992C14.6143 19.6951 14.4576 20.075 14.1782 20.3555C13.8987 20.6359 13.5193 20.7939 13.1234 20.7948C12.7281 20.7935 12.3494 20.6355 12.0704 20.3555C11.7913 20.0754 11.6346 19.6962 11.6346 19.3009C11.6337 18.905 11.79 18.5249 12.0692 18.2442C12.3483 17.9634 12.7292 17.8049 13.1251 17.8036ZM28.0746 17.8036C28.8988 17.8036 29.565 18.4733 29.565 19.2992C29.5655 19.6951 29.4088 20.075 29.1293 20.3555C28.8498 20.6359 28.4705 20.7939 28.0746 20.7948C27.6792 20.7935 27.3006 20.6355 27.0215 20.3555C26.7425 20.0754 26.5858 19.6962 26.5858 19.3009C26.5849 18.905 26.7412 18.5249 27.0203 18.2442C27.2995 17.9634 27.6786 17.8049 28.0746 17.8036ZM12.7765 3.9514L12.7714 3.95483C12.5725 4.04134 12.4026 4.1832 12.282 4.36351L12.2734 4.37382C12.0365 4.69836 11.8304 5.17572 11.6759 5.80248C11.3839 6.99074 11.305 8.60313 11.4629 10.5796C12.2013 10.3598 13.0066 10.2224 13.8738 10.1726L13.891 10.1709L13.9236 10.1125C14.0026 9.9717 14.0867 9.83604 14.1777 9.7021C14.3889 8.37819 14.2155 6.7967 13.7433 5.50541C13.5132 4.88037 13.2333 4.38927 12.9654 4.10938C12.9101 4.05118 12.8485 3.99935 12.7817 3.95483L12.7765 3.9514ZM28.5296 4.02009L28.5262 4.0218C28.4594 4.06632 28.3977 4.11815 28.3424 4.17635C28.0746 4.45624 27.7929 4.94906 27.5646 5.5741C27.0666 6.93751 26.9 8.62374 27.1696 9.99058L27.2692 10.1571L27.283 10.1812H27.3345C28.1867 10.1814 29.0344 10.304 29.8518 10.5452C29.9995 8.61515 29.917 7.0371 29.632 5.87116C29.4775 5.24441 29.2714 4.76704 29.0327 4.4425L29.0259 4.4322C28.9055 4.25125 28.7356 4.10877 28.5365 4.0218H28.5296V4.02009Z" fill="white"/>
<path fill-rule="evenodd" clip-rule="evenodd" d="M54.9366 10.2598C51.8748 10.2598 49.4814 11.2355 47.7554 13.244C46.0864 15.1407 45.2793 17.5961 45.2793 20.6351C45.2793 23.6473 46.0864 26.1017 47.7565 27.9984C49.4804 29.9509 51.8748 30.9546 54.9366 30.9546C57.9694 30.9546 60.3627 29.9789 62.1166 28.0263C63.7867 26.1576 64.6207 23.7032 64.6207 20.6351C64.6207 17.5671 63.7867 15.0848 62.1166 13.216C60.3627 11.2355 57.9694 10.2598 54.9355 10.2598H54.9366ZM54.9366 13.1322C56.9957 13.1322 58.582 13.7738 59.6953 15.1127C60.7808 16.4517 61.3375 18.2925 61.3375 20.6351C61.3375 22.9778 60.7808 24.7907 59.6953 26.1017C58.582 27.4127 56.9957 28.0822 54.9355 28.0822C52.8764 28.0822 51.2622 27.3848 50.1498 26.0179C49.0634 24.6789 48.5356 22.894 48.5356 20.6351C48.5356 18.3484 49.0634 16.5634 50.1498 15.2234C51.2901 13.8296 52.8774 13.1322 54.9366 13.1322ZM66.9872 10.2598V30.5645H70.1597V10.2598H66.9872ZM73.3602 10.2598V30.5645H76.5327V10.2598H73.3602ZM85.9944 15.7543C84.1577 15.7543 82.7111 16.0605 81.6536 16.73C80.4016 17.4554 79.6214 18.6267 79.3151 20.2171L82.4607 20.4675C82.6273 19.7142 83.0443 19.1565 83.6569 18.7943C84.1856 18.4601 84.882 18.3204 85.7719 18.3204C87.831 18.3204 88.8616 19.2413 88.8616 21.137V21.6958L85.716 21.7785C83.601 21.8344 81.9599 22.2804 80.7907 23.1175C79.5107 23.9815 78.8981 25.2366 78.8981 26.855C78.8981 28.0542 79.343 29.03 80.2329 29.8112C81.0969 30.5645 82.2652 30.9546 83.7686 30.9546C85.0207 30.9546 86.1061 30.7311 87.0239 30.3131C87.831 29.923 88.5274 29.3922 89.0831 28.6679V30.5645H92.0342V21.3605C92.0342 19.6035 91.5892 18.2645 90.6983 17.3436C89.6957 16.284 88.1094 15.7543 85.9944 15.7543ZM88.8606 23.9815V24.7069C88.8606 25.8223 88.4157 26.7432 87.5806 27.4686C86.7466 28.166 85.716 28.5282 84.4919 28.5282C83.7966 28.5282 83.2399 28.3326 82.795 27.9984C82.349 27.6631 82.1534 27.2451 82.1534 26.7432C82.1534 25.0732 83.3216 24.1843 85.6819 24.0736L88.8606 23.9815ZM101.747 15.7543C100.357 15.7543 99.0477 16.3679 97.8515 17.623V16.1444H94.6779V30.5645H97.8505V21.9182C97.8505 20.9694 98.1288 20.1333 98.6855 19.4638C99.2422 18.7395 99.9655 18.4042 100.884 18.4042C102.776 18.4042 103.723 19.4907 103.723 21.6947V30.5645H106.895V21.7506C106.895 20.691 107.146 19.8818 107.702 19.2962C108.231 18.6826 108.872 18.4042 109.651 18.4042C110.763 18.4042 111.543 18.6546 112.044 19.1844C112.517 19.6873 112.767 20.5234 112.767 21.6678V30.5645H115.94V21.1091C115.94 19.5197 115.439 18.2366 114.493 17.2329C113.491 16.2292 112.267 15.7543 110.791 15.7543C109.817 15.7543 109.011 15.9219 108.37 16.2561C107.646 16.5914 106.951 17.205 106.283 18.0979C105.365 16.5355 103.862 15.7543 101.747 15.7543ZM125.125 15.7543C123.289 15.7543 121.841 16.0605 120.783 16.73C119.531 17.4554 118.752 18.6267 118.445 20.2171L121.591 20.4675C121.757 19.7142 122.175 19.1565 122.787 18.7943C123.315 18.4601 124.012 18.3204 124.902 18.3204C126.961 18.3204 127.992 19.2413 127.992 21.137V21.6958L124.846 21.7785C122.732 21.8344 121.09 22.2804 119.921 23.1175C118.641 23.9815 118.028 25.2366 118.028 26.855C118.028 28.0542 118.473 29.03 119.364 29.8112C120.227 30.5645 121.396 30.9546 122.898 30.9546C124.151 30.9546 125.237 30.7311 126.155 30.3131C126.962 29.923 127.657 29.3922 128.214 28.6679V30.5645H131.163V21.3605C131.163 19.6035 130.718 18.2645 129.827 17.3436C128.826 16.284 127.24 15.7543 125.125 15.7543ZM127.992 23.9815V24.7069C127.992 25.8223 127.547 26.7432 126.712 27.4686C125.876 28.166 124.847 28.5282 123.622 28.5282C122.926 28.5282 122.37 28.3326 121.925 27.9984C121.48 27.6631 121.284 27.2451 121.284 26.7432C121.284 25.0732 122.451 24.1843 124.813 24.0736L127.992 23.9815Z" fill="white"/>
</svg>
