<svg width="196" height="42" viewBox="0 0 196 42" fill="none" xmlns="http://www.w3.org/2000/svg">
<g clip-path="url(#clip0_6755_5949)">
<path d="M55.6128 3.47133C55.0175 3.17963 54.7611 3.73553 54.413 4.01793C54.2939 4.10903 54.1932 4.22743 54.0924 4.33673C53.2223 5.26593 52.2057 5.87653 50.8776 5.80353C48.9359 5.69413 47.2781 6.30473 45.8126 7.78983C45.5012 5.95853 44.4663 4.86503 42.8909 4.16363C42.0667 3.79913 41.2332 3.43463 40.6561 2.64193C40.2531 2.07723 40.1432 1.44853 39.9417 0.828932C39.8134 0.455432 39.6852 0.072632 39.2547 0.008832C38.7876 -0.063968 38.6044 0.327632 38.4212 0.655832C37.6885 1.99523 37.4046 3.47123 37.432 4.96543C37.4961 8.32753 38.9158 11.006 41.7367 12.9103C42.0573 13.129 42.1397 13.3475 42.039 13.6666C41.8466 14.3226 41.6176 14.9603 41.4162 15.6163C41.2879 16.0355 41.0955 16.1266 40.6468 15.9442C39.0989 15.2975 37.7616 14.3407 36.5801 13.1837C34.5743 11.243 32.7608 9.10193 30.4986 7.42543C29.9674 7.03363 29.4361 6.66933 28.8865 6.32293C26.5784 4.08173 29.1888 2.24113 29.7933 2.02263C30.4252 1.79483 30.0131 1.01113 27.9706 1.02043C25.9281 1.02943 24.0597 1.71283 21.6784 2.62393C21.3304 2.76063 20.9639 2.86073 20.5884 2.94273C18.4269 2.53283 16.1829 2.44153 13.8382 2.70593C9.4235 3.19783 5.8974 5.28433 3.3054 8.84683C0.191404 13.129 -0.541296 17.9942 0.356304 23.0692C1.2997 28.4173 4.029 32.8453 8.2239 36.3077C12.5745 39.8973 17.5845 41.6558 23.2997 41.3187C26.771 41.1183 30.6361 40.6537 34.9958 36.9637C36.0948 37.5104 37.2489 37.7289 39.1632 37.8929C40.6378 38.0296 42.0575 37.8201 43.1565 37.5924C44.8784 37.2279 44.7594 35.6334 44.1366 35.3419C39.09 32.9913 40.1981 33.9479 39.1907 33.1734C41.7552 30.1395 45.6204 26.9869 47.1316 16.7733C47.2506 15.9625 47.1499 15.4522 47.1316 14.7962C47.1224 14.3954 47.214 14.2406 47.672 14.1949C48.9359 14.0491 50.1632 13.703 51.2898 13.0834C54.5596 11.2977 55.8784 8.36393 56.1898 4.84703C56.2357 4.30943 56.1807 3.75353 55.6128 3.47133ZM27.119 35.1231C22.2281 31.2784 19.856 30.0118 18.8759 30.0665C17.96 30.1212 18.1249 31.169 18.3263 31.8524C18.537 32.5265 18.8118 32.9913 19.1964 33.5834C19.462 33.9752 19.6453 34.5582 18.9309 34.9957C17.3555 35.9706 14.6169 34.6676 14.4886 34.6039C11.3014 32.7269 8.6361 30.2486 6.7584 26.8595C4.9449 23.5975 3.8917 20.099 3.7176 16.3634C3.6718 15.4615 3.9374 15.1424 4.835 14.9786C6.0165 14.7599 7.2347 14.7142 8.4162 14.8873C13.408 15.6163 17.6577 17.8485 21.2205 21.3836C23.2538 23.3971 24.7925 25.8026 26.3771 28.1532C28.0623 30.6495 29.8758 33.0277 32.1839 34.9774C32.999 35.6607 33.6493 36.18 34.2721 36.5628C32.3946 36.7723 29.2622 36.818 27.119 35.1231ZM29.4637 20.0443C29.4637 19.6434 29.7843 19.3246 30.1874 19.3246C30.279 19.3246 30.3614 19.3426 30.4347 19.3699C30.5355 19.4065 30.6271 19.4612 30.7003 19.543C30.8286 19.6707 30.9018 19.8528 30.9018 20.0442C30.9018 20.4451 30.5813 20.7639 30.1784 20.7639C29.7755 20.7639 29.4637 20.4452 29.4637 20.0443ZM36.7452 23.7799C36.2781 23.9713 35.811 24.1351 35.3622 24.1534C34.6661 24.1898 33.9059 23.9073 33.4938 23.5611C32.8527 23.0235 32.3947 22.723 32.2024 21.7845C32.1199 21.3836 32.1657 20.764 32.2391 20.4088C32.4039 19.6434 32.2207 19.1515 31.6804 18.7049C31.2407 18.3404 30.682 18.2403 30.0683 18.2403C29.8393 18.2403 29.6288 18.14 29.473 18.058C29.2165 17.9305 29.006 17.6116 29.2074 17.2198C29.2715 17.0924 29.583 16.7825 29.6563 16.7279C30.4898 16.254 31.4515 16.409 32.3399 16.7643C33.1643 17.1014 33.7871 17.721 34.6846 18.5956C35.6005 19.6524 35.7653 19.9442 36.2874 20.7367C36.6997 21.3563 37.0752 21.994 37.3316 22.723C37.4873 23.1786 37.2856 23.5521 36.7452 23.7799Z" fill="white"/>
<path d="M119.459 14.8285C118.164 14.8285 116.857 15.1129 116.009 15.9135C115.936 15.982 115.867 16.0557 115.799 16.1295H115.177V14.8285H111.769V35.3075H115.177V22.5819C115.177 21.2704 115.461 19.9536 116.252 19.095C117.042 18.2312 118.253 17.9257 119.459 17.9257C120.66 17.9257 121.877 18.2312 122.667 19.095C123.457 19.9536 123.741 21.2704 123.741 22.5819C123.741 23.8882 123.457 25.205 122.667 26.0635C121.877 26.9273 120.66 27.2328 119.459 27.2328H117.521V30.3299H119.459C121.466 30.3299 123.483 29.819 124.8 28.3863C126.117 26.9536 126.586 24.7625 126.586 22.5818C126.586 20.4011 126.117 18.2047 124.8 16.7721C123.483 15.3394 121.466 14.8285 119.459 14.8285ZM71.8541 23.1191C71.8541 24.4306 71.5697 25.7474 70.7796 26.606C69.9895 27.4646 68.7781 27.7753 67.5719 27.7753C66.3657 27.7753 65.1542 27.4645 64.3642 26.606C63.5741 25.7474 63.2897 24.4306 63.2897 23.1191C63.2897 21.8128 63.5741 20.4908 64.3642 19.6322C65.1543 18.7736 66.3657 18.4681 67.5719 18.4681H69.5102V15.371H67.5719C65.5651 15.371 63.5477 15.8819 62.2309 17.3146C60.9141 18.7473 60.4453 20.9384 60.4453 23.1191C60.4453 25.2998 60.9141 27.4962 62.2309 28.9288C63.5477 30.3615 65.5651 30.8724 67.5719 30.8724C68.8676 30.8724 70.1686 30.5827 71.0219 29.7874C71.0956 29.7189 71.1641 29.6452 71.2273 29.5714H71.8541V30.8724H75.262V10.3883H71.8541V23.1191ZM84.9589 14.8285C82.8731 14.8285 80.7767 15.3605 79.4072 16.8406C78.043 18.3207 77.5531 20.5909 77.5531 22.8505C77.5531 25.1049 78.043 27.3803 79.4072 28.8604C80.7767 30.3405 82.873 30.8725 84.9589 30.8725C87.0448 30.8725 89.1411 30.3405 90.5106 28.8604C91.2111 28.0967 91.6852 27.1275 91.9802 26.053H88.6092C88.5144 26.1952 88.409 26.3322 88.2932 26.4586C87.4715 27.3488 86.2126 27.6648 84.9591 27.6648C83.7108 27.6648 82.4519 27.3488 81.6302 26.4586C80.8085 25.5684 80.5135 24.2042 80.5135 22.8506C80.5135 21.497 80.8085 20.1327 81.6302 19.2426C82.4519 18.3524 83.7108 18.0364 84.9591 18.0364C86.2127 18.0364 87.4716 18.3524 88.2932 19.2426C88.8621 19.8589 89.1781 20.6964 89.3203 21.6076H83.2946V24.0937H92.37V22.8506C92.37 20.591 91.8801 18.3208 90.5107 16.8407C89.1465 15.3606 87.0448 14.8285 84.9589 14.8285ZM102.067 14.8285C99.9862 14.8285 97.8846 15.3605 96.5204 16.8406C95.1509 18.3207 94.6611 20.5909 94.6611 22.8505C94.6611 25.1049 95.151 27.3803 96.5204 28.8604C97.8846 30.3405 99.9862 30.8725 102.067 30.8725C104.153 30.8725 106.249 30.3405 107.619 28.8604C108.324 28.0967 108.793 27.1275 109.088 26.053H105.717C105.622 26.1952 105.517 26.3322 105.401 26.4586C104.579 27.3488 103.321 27.6648 102.072 27.6648C100.819 27.6648 99.5597 27.3488 98.738 26.4586C97.9163 25.5684 97.6214 24.2042 97.6214 22.8506C97.6214 21.497 97.9164 20.1327 98.738 19.2426C99.5597 18.3524 100.819 18.0364 102.072 18.0364C103.321 18.0364 104.579 18.3524 105.401 19.2426C105.97 19.8589 106.286 20.6964 106.428 21.6076H100.403V24.0937H109.478V22.8506C109.478 20.591 108.988 18.3208 107.619 16.8407C106.254 15.3606 104.153 14.8285 102.067 14.8285ZM141.834 22.5871C140.47 21.7127 138.369 21.402 136.288 21.402H136.362C135.472 21.402 134.576 21.2809 133.992 20.9385C133.407 20.6014 133.201 20.0799 133.201 19.5638C133.201 19.0477 133.407 18.5262 133.992 18.1891C134.576 17.8467 135.472 17.7256 136.362 17.7256C137.252 17.7256 138.147 17.852 138.727 18.1891C139.311 18.5262 139.522 19.0477 139.522 19.5638H142.993C142.993 18.2312 142.546 16.8933 141.308 16.019C140.07 15.1446 138.174 14.8286 136.288 14.8286C134.402 14.8286 132.506 15.1446 131.268 16.019C130.031 16.8934 129.588 18.2312 129.588 19.5638C129.588 20.8964 130.031 22.2395 131.268 23.1086C132.506 23.983 134.402 24.299 136.288 24.299C137.268 24.299 138.342 24.4201 138.985 24.7572C139.633 25.0996 139.864 25.621 139.864 26.1372C139.864 26.6534 139.633 27.1748 138.985 27.5119C138.342 27.849 137.352 27.9701 136.367 27.9701C135.387 27.9701 134.397 27.849 133.749 27.5119C133.107 27.1695 132.875 26.6533 132.875 26.1372H128.877C128.877 27.4645 129.367 28.8077 130.736 29.682C132.106 30.5564 134.202 30.8671 136.288 30.8671C138.369 30.8671 140.47 30.5563 141.834 29.682C143.204 28.8076 143.694 27.4645 143.694 26.1372C143.694 24.8046 143.204 23.4615 141.834 22.5871ZM153.396 14.8285C151.31 14.8285 149.214 15.3605 147.844 16.8406C146.48 18.3207 145.985 20.5909 145.985 22.8505C145.985 25.1049 146.48 27.3803 147.844 28.8604C149.214 30.3405 151.31 30.8725 153.396 30.8725C155.482 30.8725 157.578 30.3405 158.948 28.8604C159.648 28.0967 160.122 27.1275 160.412 26.053H157.046C156.951 26.1952 156.846 26.3322 156.73 26.4586C155.908 27.3488 154.649 27.6648 153.396 27.6648C152.148 27.6648 150.883 27.3488 150.067 26.4586C149.245 25.5684 148.95 24.2042 148.95 22.8506C148.95 21.497 149.245 20.1327 150.067 19.2426C150.883 18.3524 152.148 18.0364 153.396 18.0364C154.649 18.0364 155.908 18.3524 156.73 19.2426C157.299 19.8589 157.615 20.6964 157.757 21.6076H151.726V24.0937H160.807V22.8506C160.807 20.591 160.317 18.3208 158.948 16.8407C157.578 15.3606 155.482 14.8285 153.396 14.8285ZM170.504 14.8285C168.418 14.8285 166.322 15.3605 164.952 16.8406C163.588 18.3207 163.093 20.5909 163.093 22.8505C163.093 25.1049 163.588 27.3803 164.952 28.8604C166.322 30.3405 168.418 30.8725 170.504 30.8725C172.59 30.8725 174.686 30.3405 176.056 28.8604C176.756 28.0967 177.23 27.1275 177.525 26.053H174.154C174.059 26.1952 173.954 26.3322 173.838 26.4586C173.016 27.3488 171.758 27.6648 170.504 27.6648C169.256 27.6648 167.991 27.3488 167.175 26.4586C166.353 25.5684 166.058 24.2042 166.058 22.8506C166.058 21.497 166.353 20.1327 167.175 19.2426C167.991 18.3524 169.256 18.0364 170.504 18.0364C171.758 18.0364 173.016 18.3524 173.838 19.2426C174.407 19.8589 174.723 20.6964 174.865 21.6076H168.84V24.0937H177.915V22.8506C177.915 20.591 177.425 18.3208 176.056 16.8407C174.686 15.3606 172.59 14.8285 170.504 14.8285ZM180.201 9.67188H183.609V30.8725H180.201V9.67188ZM190.798 15.5396L185.205 22.3712L190.798 30.8725H195.023L189.429 22.3712L195.023 15.5396H190.798Z" fill="white"/>
</g>
<defs>
<clipPath id="clip0_6755_5949">
<rect width="195.023" height="41.3595" fill="white"/>
</clipPath>
</defs>
</svg>
