<svg width="129" height="41" viewBox="0 0 129 41" fill="none" xmlns="http://www.w3.org/2000/svg">
<path d="M21.5323 2.2901C22.2037 3.46885 22.8717 4.65102 23.5379 5.83489C23.5649 5.88224 23.6039 5.92158 23.651 5.94889C23.6981 5.97621 23.7517 5.99051 23.8061 5.99035H33.2908C33.5881 5.99035 33.8409 6.17827 34.0527 6.54897L36.5366 10.9394C36.8612 11.5151 36.9466 11.756 36.5776 12.3693C36.1335 13.1039 35.7013 13.8453 35.2793 14.5901L34.6523 15.7142C34.4713 16.049 34.2714 16.1925 34.584 16.5888L39.1145 24.5104C39.4083 25.0246 39.3041 25.3543 39.0411 25.8258C38.2945 27.1668 37.5343 28.4976 36.7604 29.8233C36.4888 30.288 36.1591 30.4639 35.5988 30.4554C34.2714 30.4281 32.9474 30.4383 31.6235 30.4827C31.5951 30.4842 31.5675 30.4928 31.5433 30.5077C31.5192 30.5226 31.4991 30.5434 31.4851 30.5681C29.9576 33.2746 28.4172 35.9738 26.8641 38.6656C26.5753 39.1662 26.2149 39.2858 25.6255 39.2875C23.9223 39.2926 22.2054 39.2943 20.4715 39.2909C20.31 39.2904 20.1516 39.2474 20.0121 39.1661C19.8726 39.0848 19.7571 38.9682 19.6771 38.8279L17.3965 34.8595C17.3832 34.8335 17.3628 34.8119 17.3377 34.797C17.3126 34.7822 17.2838 34.7748 17.2547 34.7758H8.51142C8.02455 34.827 7.56672 34.7741 7.13622 34.6186L4.39776 29.8865C4.31677 29.7464 4.27384 29.5876 4.27324 29.4257C4.27265 29.2639 4.31439 29.1047 4.39434 28.964L6.4563 25.3423C6.48567 25.2911 6.50113 25.2331 6.50113 25.1741C6.50113 25.115 6.48567 25.057 6.4563 25.0058C5.38222 23.1462 4.3145 21.283 3.25317 19.4161L1.90359 17.033C1.63026 16.5034 1.60805 16.1857 2.06588 15.3845C2.86026 13.9956 3.64951 12.6084 4.43534 11.223C4.66084 10.8232 4.95468 10.6524 5.43301 10.6507C6.90729 10.6445 8.38159 10.6439 9.85588 10.649C9.89312 10.6487 9.92963 10.6386 9.96172 10.6197C9.99381 10.6008 10.0204 10.5738 10.0387 10.5414L14.8323 2.17906C14.9049 2.05184 15.0098 1.94602 15.1364 1.87224C15.2629 1.79846 15.4067 1.75934 15.5532 1.75881C16.4483 1.7571 17.3521 1.75881 18.2575 1.74856L19.9948 1.70927C20.5774 1.70414 21.2317 1.76393 21.5323 2.2901ZM15.6693 2.97856C15.6513 2.97855 15.6336 2.98328 15.6181 2.99227C15.6025 3.00127 15.5895 3.01422 15.5805 3.02981L10.6844 11.5971C10.6609 11.6375 10.6273 11.671 10.5868 11.6944C10.5464 11.7177 10.5005 11.7301 10.4538 11.7304H5.55772C5.46205 11.7304 5.43813 11.7731 5.48767 11.8568L15.4131 29.2066C15.4558 29.2784 15.4353 29.3125 15.355 29.3142L10.5802 29.3399C10.5104 29.3375 10.4414 29.3549 10.3809 29.3899C10.3205 29.425 10.2712 29.4763 10.2385 29.538L7.98355 33.4843C7.90838 33.6175 7.94768 33.6859 8.09972 33.6859L17.8646 33.6995C17.9431 33.6995 18.0012 33.7337 18.0422 33.8037L20.439 37.996C20.5176 38.1344 20.5962 38.1361 20.6765 37.996L29.2284 23.031L30.566 20.6701C30.5742 20.6555 30.5861 20.6433 30.6005 20.6349C30.6149 20.6264 30.6313 20.622 30.648 20.622C30.6647 20.622 30.6811 20.6264 30.6955 20.6349C30.71 20.6433 30.7219 20.6555 30.73 20.6701L33.1627 24.9921C33.1809 25.0245 33.2075 25.0514 33.2397 25.07C33.2718 25.0886 33.3083 25.0983 33.3455 25.0981L38.0656 25.0639C38.0777 25.064 38.0896 25.0609 38.1001 25.0549C38.1106 25.0489 38.1193 25.0402 38.1254 25.0297C38.1312 25.0193 38.1343 25.0075 38.1343 24.9956C38.1343 24.9836 38.1312 24.9718 38.1254 24.9614L33.1712 16.2728C33.1534 16.2438 33.144 16.2104 33.144 16.1763C33.144 16.1422 33.1534 16.1088 33.1712 16.0798L33.6718 15.2136L35.5851 11.8363C35.6261 11.7662 35.6056 11.7304 35.5253 11.7304H15.7172C15.6164 11.7304 15.5925 11.6859 15.6437 11.5988L18.0935 7.31943C18.1118 7.29027 18.1216 7.25652 18.1216 7.22206C18.1216 7.1876 18.1118 7.15384 18.0935 7.12468L15.7599 3.03152C15.751 3.01535 15.7378 3.0019 15.7219 2.99258C15.706 2.98326 15.6878 2.97841 15.6693 2.97856ZM26.4148 16.6794C26.4933 16.6794 26.5138 16.7136 26.4728 16.7819L25.0515 19.2846L20.5876 27.1173C20.5792 27.1326 20.5669 27.1452 20.5518 27.154C20.5368 27.1627 20.5196 27.1671 20.5022 27.1669C20.4849 27.1668 20.4679 27.1622 20.4529 27.1535C20.4379 27.1448 20.4255 27.1323 20.4168 27.1173L14.5179 16.8126C14.4838 16.7546 14.5008 16.7238 14.5658 16.7204L14.9348 16.6999L26.4182 16.6794H26.4148Z" fill="white"/>
<g clip-path="url(#clip0_6755_5961)">
<path fill-rule="evenodd" clip-rule="evenodd" d="M59.8004 22.7983H63.73L65.3797 24.735C66.3816 23.9081 67.181 22.8629 67.7167 21.6794C68.2732 20.4751 68.5573 19.1628 68.5485 17.8362C68.5485 15.6459 67.8753 13.8829 66.5266 12.5439C65.1887 11.1953 63.4149 10.522 61.2063 10.522C60.0971 10.522 59.0592 10.7227 58.0935 11.124C57.1203 11.5211 56.2409 12.1172 55.5116 12.8741C54.6827 13.7254 54.0255 14.7284 53.576 15.8283C53.128 16.9203 52.8989 18.0897 52.9016 19.2701C52.9016 21.4312 53.5609 23.2007 54.8804 24.5774C56.2 25.9542 57.8788 26.6425 59.9148 26.6425C60.3356 26.6425 60.7704 26.6091 61.2203 26.5422C61.6789 26.4753 62.1568 26.3696 62.6542 26.2261L59.8004 22.7983ZM66.97 31.2896L64.6751 28.6354C63.8627 28.9515 63.0783 29.1856 62.323 29.3388C61.5882 29.4991 60.8384 29.5808 60.0863 29.5827C56.8819 29.5827 54.3399 28.6656 52.456 26.8292C50.5733 24.9928 49.6313 22.5123 49.6313 19.3845C49.6313 17.683 49.9335 16.0915 50.5344 14.609C51.1135 13.1519 51.9988 11.8361 53.1304 10.7507C54.208 9.7167 55.4807 8.90759 56.8743 8.37058C58.2899 7.82571 59.8047 7.55273 61.421 7.55273C64.5661 7.55273 67.0855 8.48063 68.979 10.3353C70.8726 12.1911 71.8188 14.6619 71.8188 17.7499C71.8188 19.6531 71.4369 21.4172 70.6719 23.0421C69.9262 24.6439 68.8042 26.0417 67.4016 27.1162L70.9017 31.2896H66.97ZM73.1664 15.456H76.2781L78.4867 22.3969L78.545 22.5695C78.8126 23.4208 78.955 24.0509 78.9755 24.4631C79.0801 24.1372 79.2139 23.7941 79.3768 23.4294C79.5495 23.0572 79.7588 22.6602 80.008 22.2394L84.5687 14.4515L86.7914 22.4681C86.8777 22.7648 86.9489 23.0712 87.0072 23.3863C87.0643 23.7024 87.1118 24.066 87.1507 24.476C87.2931 24.0747 87.4366 23.7121 87.5801 23.3863C87.7333 23.0626 87.8822 22.7799 88.0246 22.5404L92.1419 15.4549H95.6409L86.4202 29.8977L84.1253 22.2965C84.0351 22.0134 83.9584 21.726 83.8955 21.4355C83.8334 21.0882 83.7809 20.7392 83.738 20.389C83.5546 20.7729 83.3679 21.1552 83.178 21.5359C83.0161 21.8617 82.8921 22.0905 82.8057 22.2243L78.1878 29.8977L73.1664 15.456ZM99.4841 20.6188H106.497C106.469 19.7017 106.182 18.9788 105.637 18.4533C105.102 17.9171 104.379 17.6495 103.471 17.6495C102.438 17.6495 101.563 17.9171 100.847 18.4533C100.129 18.9885 99.6751 19.7103 99.4841 20.6188ZM106.325 24.8785L108.548 26.6134C107.755 27.6557 106.894 28.4153 105.968 28.8943C105.04 29.3723 103.974 29.6118 102.768 29.6118C100.751 29.6118 99.1216 29.0044 97.8776 27.7895C96.6346 26.5659 96.0131 24.9594 96.0131 22.9709C96.0131 20.6382 96.7252 18.7252 98.1495 17.2341C99.5845 15.7333 101.406 14.9824 103.615 14.9824C105.46 14.9824 106.928 15.5564 108.018 16.7033C109.118 17.8416 109.668 19.3715 109.668 21.2931C109.668 21.455 109.658 21.6654 109.639 21.9243C109.628 22.1725 109.61 22.4746 109.581 22.8274H99.2122C99.2122 24.0606 99.523 25.0457 100.144 25.7815C100.766 26.5088 101.592 26.8713 102.626 26.8713C103.342 26.8713 104.021 26.6997 104.662 26.3555C105.32 25.9944 105.889 25.4896 106.326 24.8785H106.325ZM121.772 29.0518L122.804 21.2359C122.824 21.0924 122.838 20.9446 122.848 20.7914C122.857 20.6285 122.862 20.3944 122.862 20.0879C122.862 19.1989 122.646 18.5202 122.216 18.052C121.786 17.5729 121.159 17.3345 120.338 17.3345C119.056 17.3345 118.053 17.7499 117.326 18.5817C116.599 19.405 116.126 20.6717 115.906 22.3829L115.046 29.0518H111.962L113.754 15.456H116.724L116.494 17.0906C117.278 16.3742 118.086 15.8434 118.918 15.4992C119.77 15.1528 120.681 14.9772 121.6 14.9824C122.995 14.9824 124.082 15.3503 124.856 16.0872C125.64 16.8133 126.032 17.8373 126.032 19.1568C126.032 19.4913 126.012 19.8829 125.974 20.3329C125.936 20.772 125.878 21.2888 125.802 21.8812L124.856 29.0529L121.772 29.0518Z" fill="white"/>
</g>
<defs>
<clipPath id="clip0_6755_5961">
<rect width="80.9211" height="25.8947" fill="white" transform="translate(47.4736 7.55273)"/>
</clipPath>
</defs>
</svg>
